# xmcd CD database file
#
# Track frame offsets:
#	150
#	22342
#	44610
#	63855
#	86050
#	106185
#	132177
#	154275
#	177930
#	199175
#	218302
#
# Disc length: 3242 seconds
#
# Revision: 2
# Processed by: cddbd v1.5.2PL0 Copyright (c) Steve Scherf et al.
# Submitted via: CDex 1.70beta3
#
DISCID=960ca80b
DTITLE=柳ジョージ - WANDERER
DYEAR=1989
DGENRE=J-Rock
TTITLE0=SWEET CRIME
TTITLE1=SLEEP WALKIN' BLUES
TTITLE2=I CALL YOUR NAME
TTITLE3=KEEP ON ROLLIN'
TTITLE4=DO IT YOURSELF
TTITLE5=FATHERLAND
TTITLE6=WANDERER
TTITLE7=I THINK OF YOU
TTITLE8=IN THE RAIN
TTITLE9=CROCODILE TEARS
TTITLE10=VENUS WARS
EXTD=YEAR: 1989
EXTT0=
EXTT1=
EXTT2=
EXTT3=
EXTT4=
EXTT5=
EXTT6=
EXTT7=
EXTT8=
EXTT9=
EXTT10=
PLAYORDER=
